# xmcd
#
# Track frame offsets:
#	182
#	5265
#	23322
#	33220
#	43192
#	60470
#	72775
#	89025
#	128552
#	145152
#	190830
#	207225
#	221077
#	253940
#	275092
#
# Disc length: 3965 seconds
#
# Revision: 1
# Processed by: cddbd v1.5.2PL0 Copyright (c) Steve Scherf et al.
# Submitted via: audiograbber 1.83.01
#
DISCID=d60f7b0f
DTITLE=Ike and Tina Turner - Live In Paris
DYEAR=1971
DGENRE=Soul Rock
TTITLE0=Grumbling
TTITLE1=You Got Me Hummin'
TTITLE2=Everyday People
TTITLE3=Shake A Tail Feather
TTITLE4=Medley: Gimme Some Loving - Sweet Soul Music
TTITLE5=Son Of A Preacherman
TTITLE6=Come Together
TTITLE7=Proud Mary
TTITLE8=A Love Like Yours Don't Come Knocking Everyday
TTITLE9=I Smell Trouble
TTITLE10=Respect
TTITLE11=Honky Tonk Women
TTITLE12=I've Been Loving You Too Long
TTITLE13=I Want To Take You Higher
TTITLE14=Land Of 1000 Dances
EXTD=
EXTT0=
EXTT1=
EXTT2=
EXTT3=
EXTT4=
EXTT5=
EXTT6=
EXTT7=
EXTT8=
EXTT9=
EXTT10=
EXTT11=
EXTT12=
EXTT13=
EXTT14=
PLAYORDER=
